<svg width="24" height="25" viewBox="0 0 24 25" fill="none" xmlns="http://www.w3.org/2000/svg">
<path d="M16.19 2.51025H7.81C4.17 2.51025 2 4.68025 2 8.32025V16.6903C2 20.3403 4.17 22.5103 7.81 22.5103H16.18C19.82 22.5103 21.99 20.3403 21.99 16.7003V8.32025C22 4.68025 19.83 2.51025 16.19 2.51025Z" fill="#2C7EDF"/>
<path d="M15.5 10.6404C16.5383 10.6404 17.38 9.79867 17.38 8.76037C17.38 7.72208 16.5383 6.88037 15.5 6.88037C14.4617 6.88037 13.62 7.72208 13.62 8.76037C13.62 9.79867 14.4617 10.6404 15.5 10.6404Z" fill="#C0D9F6"/>
<path d="M8.5 10.6404C9.53829 10.6404 10.38 9.79867 10.38 8.76037C10.38 7.72208 9.53829 6.88037 8.5 6.88037C7.4617 6.88037 6.62 7.72208 6.62 8.76037C6.62 9.79867 7.4617 10.6404 8.5 10.6404Z" fill="#C0D9F6"/>
<path d="M15.6 13.4302H8.4C7.7 13.4302 7.13 14.0002 7.13 14.7102C7.13 17.4002 9.32 19.5902 12.01 19.5902C14.7 19.5902 16.89 17.4002 16.89 14.7102C16.88 14.0102 16.3 13.4302 15.6 13.4302Z" fill="#C0D9F6"/>
</svg>
