<svg width="24" height="25" viewBox="0 0 24 25" fill="none" xmlns="http://www.w3.org/2000/svg">
<path d="M16.19 2.5H7.81C4.17 2.5 2 4.67 2 8.31V16.68C2 20.33 4.17 22.5 7.81 22.5H16.18C19.82 22.5 21.99 20.33 21.99 16.69V8.31C22 4.67 19.83 2.5 16.19 2.5Z" fill="#2C7EDF"/>
<path d="M12.911 17.1159L12.3703 15.9289H8.12349L7.58275 17.1159H5.11646L9.46874 7.88379H11.025L15.3773 17.1159H12.911ZM9.05989 13.8583H11.4339L10.3788 11.5239L10.2469 11.1546L10.115 11.5239L9.05989 13.8583Z" fill="#C0D9F6"/>
<path d="M17.593 17.1159H15.3773L15.3773 7.88379H17.593V17.1159Z" fill="#C0D9F6"/>
</svg>
