<svg width="28" height="28" viewBox="0 0 28 28" fill="none" xmlns="http://www.w3.org/2000/svg">
<path d="M12.9062 16.8438C12.9062 17.1338 13.0215 17.412 13.2266 17.6171C13.4317 17.8223 13.7099 17.9375 14 17.9375C14.2901 17.9375 14.5683 17.8223 14.7734 17.6171C14.9785 17.412 15.0938 17.1338 15.0938 16.8438C15.0938 16.5537 14.9785 16.2755 14.7734 16.0704C14.5683 15.8652 14.2901 15.75 14 15.75C13.7099 15.75 13.4317 15.8652 13.2266 16.0704C13.0215 16.2755 12.9062 16.5537 12.9062 16.8438Z" fill="#E6A82D"/>
<path d="M24.3359 3.5H20.3438C20.0537 3.5 19.7755 3.61523 19.5704 3.82035C19.3652 4.02547 19.25 4.30367 19.25 4.59375C19.25 4.88383 19.3652 5.16203 19.5704 5.36715C19.7755 5.57227 20.0537 5.6875 20.3438 5.6875H22.9688C23.2588 5.6875 23.537 5.80273 23.7421 6.00785C23.9473 6.21297 24.0625 6.49117 24.0625 6.78125V18.1562C24.0625 18.4463 23.9473 18.7245 23.7421 18.9296C23.537 19.1348 23.2588 19.25 22.9688 19.25H17.7428C17.4914 19.25 17.2425 19.2995 17.0103 19.3957C16.7781 19.4918 16.567 19.6328 16.3893 19.8105L14.7623 21.4375L14 22.1998L13.2377 21.4375L12.1439 20.3438L11.6107 19.8105C11.433 19.6328 11.2219 19.4918 10.9897 19.3957C10.7575 19.2995 10.5086 19.25 10.2572 19.25H5.03125C4.74117 19.25 4.46297 19.1348 4.25785 18.9296C4.05273 18.7245 3.9375 18.4463 3.9375 18.1562V6.78125C3.9375 6.49117 4.05273 6.21297 4.25785 6.00785C4.46297 5.80273 4.74117 5.6875 5.03125 5.6875H7.65625C7.94633 5.6875 8.22453 5.57227 8.42965 5.36715C8.63477 5.16203 8.75 4.88383 8.75 4.59375C8.75 4.30367 8.63477 4.02547 8.42965 3.82035C8.22453 3.61523 7.94633 3.5 7.65625 3.5H3.66406C3.15642 3.5 2.66957 3.70166 2.31062 4.06062C1.95166 4.41957 1.75 4.90642 1.75 5.41406V19.5234C1.75 20.0311 1.95166 20.5179 2.31062 20.8769C2.66957 21.2358 3.15642 21.4375 3.66406 21.4375H10.1445L13.2267 24.5202C13.4318 24.7253 13.71 24.8405 14 24.8405C14.29 24.8405 14.5682 24.7253 14.7733 24.5202L17.8555 21.4375H24.3359C24.8436 21.4375 25.3304 21.2358 25.6894 20.8769C26.0483 20.5179 26.25 20.0311 26.25 19.5234V5.41406C26.25 4.90642 26.0483 4.41957 25.6894 4.06062C25.3304 3.70166 24.8436 3.5 24.3359 3.5Z" fill="#80B7F9"/>
<path d="M14 14C14.2901 14 14.5683 13.8848 14.7734 13.6796C14.9785 13.4745 15.0938 13.1963 15.0938 12.9062V4.59375C15.0938 4.30367 14.9785 4.02547 14.7734 3.82035C14.5683 3.61523 14.2901 3.5 14 3.5C13.7099 3.5 13.4317 3.61523 13.2266 3.82035C13.0215 4.02547 12.9062 4.30367 12.9062 4.59375V12.9062C12.9062 13.1963 13.0215 13.4745 13.2266 13.6796C13.4317 13.8848 13.7099 14 14 14Z" fill="#E6A82D"/>
</svg>
