<svg width="20" height="21" viewBox="0 0 20 21" fill="none" xmlns="http://www.w3.org/2000/svg">
<path d="M9.99996 19.4684C5.05829 19.4684 1.04163 15.4518 1.04163 10.5101C1.04163 5.56842 5.05829 1.55176 9.99996 1.55176C14.9416 1.55176 18.9583 5.56842 18.9583 10.5101C18.9583 15.4518 14.9416 19.4684 9.99996 19.4684ZM9.99996 2.80176C5.74996 2.80176 2.29163 6.26009 2.29163 10.5101C2.29163 14.7601 5.74996 18.2184 9.99996 18.2184C14.25 18.2184 17.7083 14.7601 17.7083 10.5101C17.7083 6.26009 14.25 2.80176 9.99996 2.80176Z" fill="black"/>
<path d="M7.49995 18.6353H6.66662C6.32495 18.6353 6.04162 18.3519 6.04162 18.0103C6.04162 17.6686 6.30828 17.3936 6.64995 17.3853C5.34162 12.9186 5.34162 8.10192 6.64995 3.63525C6.30828 3.62692 6.04162 3.35192 6.04162 3.01025C6.04162 2.66859 6.32495 2.38525 6.66662 2.38525H7.49995C7.69995 2.38525 7.89162 2.48525 8.00828 2.64359C8.12495 2.81025 8.15828 3.01859 8.09162 3.21025C6.52495 7.91859 6.52495 13.1019 8.09162 17.8186C8.15828 18.0103 8.12495 18.2186 8.00828 18.3853C7.89162 18.5353 7.69995 18.6353 7.49995 18.6353Z" fill="black"/>
<path d="M12.5 18.6355C12.4333 18.6355 12.3667 18.6271 12.3 18.6021C11.975 18.4938 11.7917 18.1355 11.9083 17.8105C13.475 13.1022 13.475 7.91882 11.9083 3.20215C11.8 2.87715 11.975 2.51882 12.3 2.41048C12.6333 2.30215 12.9833 2.47715 13.0917 2.80215C14.75 7.76882 14.75 13.2355 13.0917 18.1938C13.0083 18.4688 12.7583 18.6355 12.5 18.6355Z" fill="black"/>
<path d="M10 14.8437C7.675 14.8437 5.35833 14.5187 3.125 13.8604C3.11667 14.1937 2.84167 14.4687 2.5 14.4687C2.15833 14.4687 1.875 14.1854 1.875 13.8437V13.0104C1.875 12.8104 1.975 12.6187 2.13333 12.5021C2.3 12.3854 2.50833 12.3521 2.7 12.4187C7.40833 13.9854 12.6 13.9854 17.3083 12.4187C17.5 12.3521 17.7083 12.3854 17.875 12.5021C18.0417 12.6187 18.1333 12.8104 18.1333 13.0104V13.8437C18.1333 14.1854 17.85 14.4687 17.5083 14.4687C17.1667 14.4687 16.8917 14.2021 16.8833 13.8604C14.6417 14.5187 12.325 14.8437 10 14.8437Z" fill="black"/>
<path d="M17.5 8.63522C17.4334 8.63522 17.3667 8.62689 17.3 8.60189C12.5917 7.03522 7.40002 7.03522 2.69169 8.60189C2.35836 8.71022 2.00836 8.53522 1.90002 8.21022C1.80002 7.87689 1.97502 7.52689 2.30002 7.41855C7.26669 5.76022 12.7334 5.76022 17.6917 7.41855C18.0167 7.52689 18.2 7.88522 18.0834 8.21022C18.0084 8.46855 17.7584 8.63522 17.5 8.63522Z" fill="black"/>
</svg>
