<svg width="20" height="21" viewBox="0 0 20 21" fill="none" xmlns="http://www.w3.org/2000/svg">
<path d="M4.50837 18.6352C3.57504 18.6352 2.98337 18.3185 2.60837 17.9435C1.87504 17.2102 1.35837 15.6519 3.00837 12.3435L3.73337 10.9019C3.82504 10.7102 3.82504 10.3102 3.73337 10.1185L3.00837 8.67688C1.35004 5.36854 1.87504 3.80188 2.60837 3.07688C3.33337 2.34354 4.90004 1.81854 8.20004 3.47688L15.3334 7.04354C17.1084 7.92688 18.0834 9.16021 18.0834 10.5102C18.0834 11.8602 17.1084 13.0935 15.3417 13.9769L8.20837 17.5435C6.59171 18.3519 5.3917 18.6352 4.50837 18.6352ZM4.50837 3.63521C4.05837 3.63521 3.70837 3.74354 3.49171 3.96021C2.88337 4.56021 3.12504 6.11854 4.12504 8.11021L4.85004 9.56021C5.11671 10.1019 5.11671 10.9185 4.85004 11.4602L4.12504 12.9019C3.12504 14.9019 2.88337 16.4519 3.49171 17.0519C4.09171 17.6602 5.65004 17.4185 7.65004 16.4185L14.7834 12.8519C16.0917 12.2019 16.8334 11.3435 16.8334 10.5019C16.8334 9.66021 16.0834 8.80188 14.775 8.15188L7.64171 4.59354C6.37504 3.96021 5.28337 3.63521 4.50837 3.63521Z" fill="black"/>
<path d="M9.03333 11.1353H4.53333C4.19166 11.1353 3.90833 10.8519 3.90833 10.5103C3.90833 10.1686 4.19166 9.88525 4.53333 9.88525H9.03333C9.37499 9.88525 9.65833 10.1686 9.65833 10.5103C9.65833 10.8519 9.37499 11.1353 9.03333 11.1353Z" fill="black"/>
</svg>
