<svg width="16" height="16" viewBox="0 0 16 16" fill="none" xmlns="http://www.w3.org/2000/svg">
<path d="M13.9136 3.7666C13.9136 3.35628 13.8231 3.21146 13.7573 3.15072C13.6816 3.08093 13.5082 2.99971 13.0802 2.99967H12.4136C11.9852 2.99967 11.8115 3.0809 11.7358 3.15072C11.67 3.21146 11.5802 3.35628 11.5802 3.7666V10.2998C11.5802 10.71 11.67 10.8549 11.7358 10.9157C11.8115 10.9855 11.9852 11.0667 12.4136 11.0667H13.0802C13.5084 11.0667 13.6817 10.9855 13.7573 10.9157C13.8231 10.8549 13.9136 10.7101 13.9136 10.2998V3.7666ZM5.14662 2.2666C4.86647 2.2666 4.55107 2.37409 4.28334 2.56999C4.01601 2.76562 3.83128 3.02342 3.76511 3.28809L3.76056 3.30566L3.7547 3.32259L2.15509 8.18913L2.15313 8.19564L2.15053 8.2015C2.03328 8.52991 2.09209 8.78578 2.21563 8.95345C2.34155 9.12434 2.58203 9.2666 2.94675 9.2666H5.61342C6.30885 9.26667 6.88563 9.86077 6.77488 10.637L6.77423 10.6436L6.4409 12.777L6.43829 12.7926L6.43504 12.8083C6.36584 13.1196 6.56855 13.5148 6.90313 13.6657L6.97149 13.6924L6.97996 13.695L6.98907 13.6982C7.12434 13.7489 7.30188 13.7477 7.48386 13.6852C7.66923 13.6215 7.80344 13.5137 7.86407 13.4229L7.86472 13.4209L10.5802 9.38119V4.06348L8.64077 2.56217L8.61537 2.54264L8.59324 2.51986C8.54876 2.47543 8.42859 2.40521 8.22605 2.34733C8.03559 2.29291 7.83154 2.2666 7.67983 2.2666H5.14662ZM14.9136 10.2998C14.9136 10.8228 14.8032 11.3115 14.4357 11.6507C14.0781 11.9808 13.5851 12.0667 13.0802 12.0667H12.4136C11.9086 12.0667 11.4151 11.9809 11.0574 11.6507C10.8699 11.4776 10.7502 11.2653 10.6772 11.0296L8.69545 13.9769C8.48941 14.286 8.15721 14.5116 7.80938 14.6312C7.46316 14.7502 7.04808 14.7823 6.65509 14.6403C6.65359 14.6398 6.65203 14.6395 6.65053 14.639C6.64632 14.6375 6.64172 14.6367 6.63751 14.6351V14.6338C5.83184 14.355 5.28111 13.4748 5.45261 12.6227L5.7853 10.4925C5.79761 10.4006 5.77082 10.3498 5.74688 10.3226C5.71902 10.291 5.67326 10.2666 5.61342 10.2666H2.94675C2.31152 10.2666 1.7517 10.0089 1.41095 9.54655C1.06785 9.08091 0.993111 8.46975 1.20912 7.86491L2.80483 3.01074C2.94478 2.49117 3.28605 2.06108 3.69285 1.76335C4.10845 1.45924 4.62678 1.2666 5.14662 1.2666H7.67983C7.92812 1.2666 8.22458 1.30683 8.50079 1.38574C8.75025 1.45703 9.0428 1.57781 9.26186 1.77832L10.7221 2.90853C10.7965 2.72402 10.9046 2.55681 11.0574 2.41569C11.4151 2.08555 11.9086 1.99967 12.4136 1.99967H13.0802C13.5851 1.9997 14.0781 2.08566 14.4357 2.41569C14.8032 2.75494 14.9136 3.24359 14.9136 3.7666V10.2998Z" fill="#292D32"/>
</svg>
