<svg width="17" height="21" viewBox="0 0 17 21" fill="none" xmlns="http://www.w3.org/2000/svg">
<path d="M8.32758 4.76025C8.43458 4.76025 8.49258 4.69425 8.50857 4.59625C8.75558 3.26625 8.73057 3.19925 10.1626 2.94525C10.2626 2.92025 10.3276 2.86325 10.3276 2.75525C10.3276 2.65725 10.2616 2.59225 10.1626 2.57525C8.73057 2.32125 8.75558 2.25525 8.50857 0.925254C8.49258 0.825254 8.43458 0.760254 8.32858 0.760254C8.22058 0.760254 8.16257 0.826254 8.14657 0.924254C7.89957 2.25425 7.92457 2.32125 6.49257 2.57525C6.38557 2.59225 6.32757 2.65725 6.32757 2.75525C6.32757 2.86325 6.38557 2.92025 6.49257 2.94525C7.92457 3.19925 7.89957 3.26525 8.14657 4.59525C8.16257 4.69525 8.22058 4.76025 8.32758 4.76025ZM3.91357 10.3203C4.06157 10.3203 4.16357 10.2183 4.17857 10.0783C4.45857 7.99525 4.52857 7.99525 6.67957 7.58125C6.81257 7.55825 6.91357 7.46425 6.91357 7.31625C6.91432 7.25166 6.89061 7.18917 6.84722 7.14132C6.80382 7.09347 6.74393 7.0638 6.67957 7.05825C4.52957 6.75425 4.45157 6.68425 4.17857 4.57025C4.16257 4.42125 4.06157 4.32025 3.91357 4.32025C3.77357 4.32025 3.67157 4.42125 3.64857 4.57725C3.39857 6.66125 3.28257 6.65325 1.14757 7.05825C1.01357 7.08225 0.913574 7.17525 0.913574 7.31625C0.913574 7.47225 1.01457 7.55825 1.17857 7.58125C3.29857 7.92525 3.39857 7.97925 3.64857 10.0623C3.67157 10.2183 3.77357 10.3203 3.91357 10.3203ZM9.91358 20.7603C10.1446 20.7603 10.3136 20.5903 10.3586 20.3503C10.9896 15.4823 11.6746 14.7353 16.4956 14.2003C16.7446 14.1743 16.9136 13.9963 16.9136 13.7563C16.9136 13.5243 16.7446 13.3463 16.4956 13.3193C11.6756 12.7853 10.9896 12.0383 10.3586 7.16125C10.3136 6.92025 10.1436 6.76025 9.91358 6.76025C9.68357 6.76025 9.51357 6.92025 9.47758 7.16025C8.84657 12.0383 8.15257 12.7853 3.34057 13.3203C3.08257 13.3463 2.91357 13.5243 2.91357 13.7563C2.91357 13.9963 3.08257 14.1743 3.34057 14.2013C8.14357 14.8323 8.81058 15.4823 9.47758 20.3513C9.51357 20.5913 9.68258 20.7603 9.91358 20.7603Z" fill="#6155F5"/>
</svg>
