<svg width="16" height="17" viewBox="0 0 16 17" fill="none" xmlns="http://www.w3.org/2000/svg">
<path d="M7.60001 15.6768H5.06668C2.14001 15.6768 0.833344 14.3701 0.833344 11.4434V8.91009C0.833344 5.98342 2.14001 4.67676 5.06668 4.67676H7.06668C7.34001 4.67676 7.56668 4.90342 7.56668 5.17676C7.56668 5.45009 7.34001 5.67676 7.06668 5.67676H5.06668C2.68001 5.67676 1.83334 6.52342 1.83334 8.91009V11.4434C1.83334 13.8301 2.68001 14.6768 5.06668 14.6768H7.60001C9.98668 14.6768 10.8333 13.8301 10.8333 11.4434V9.44342C10.8333 9.17009 11.06 8.94342 11.3333 8.94342C11.6067 8.94342 11.8333 9.17009 11.8333 9.44342V11.4434C11.8333 14.3701 10.5267 15.6768 7.60001 15.6768Z" fill="#2A2A2A"/>
<path d="M11.3333 9.94342H9.20001C7.32668 9.94342 6.56668 9.18342 6.56668 7.31008V5.17675C6.56668 4.97675 6.68668 4.79008 6.87335 4.71675C7.06001 4.63675 7.27335 4.68342 7.42001 4.82342L11.6867 9.09008C11.8267 9.23008 11.8733 9.45008 11.7933 9.63675C11.72 9.82342 11.5333 9.94342 11.3333 9.94342ZM7.56668 6.38342V7.31008C7.56668 8.63675 7.87335 8.94342 9.20001 8.94342H10.1267L7.56668 6.38342Z" fill="#2A2A2A"/>
<path d="M10.4 2.34375H7.73334C7.46 2.34375 7.23334 2.11708 7.23334 1.84375C7.23334 1.57042 7.46 1.34375 7.73334 1.34375H10.4C10.6733 1.34375 10.9 1.57042 10.9 1.84375C10.9 2.11708 10.6733 2.34375 10.4 2.34375Z" fill="#2A2A2A"/>
<path d="M4.66666 4.34375C4.39332 4.34375 4.16666 4.11708 4.16666 3.84375C4.16666 2.46375 5.28666 1.34375 6.66666 1.34375H8.41332C8.68666 1.34375 8.91332 1.57042 8.91332 1.84375C8.91332 2.11708 8.68666 2.34375 8.41332 2.34375H6.66666C5.83999 2.34375 5.16666 3.01708 5.16666 3.84375C5.16666 4.11708 4.93999 4.34375 4.66666 4.34375Z" fill="#2A2A2A"/>
<path d="M12.7933 12.3438C12.52 12.3438 12.2933 12.1171 12.2933 11.8438C12.2933 11.5704 12.52 11.3438 12.7933 11.3438C13.5533 11.3438 14.1667 10.7238 14.1667 9.97042V5.84375C14.1667 5.57042 14.3933 5.34375 14.6667 5.34375C14.94 5.34375 15.1667 5.57042 15.1667 5.84375V9.97042C15.1667 11.2771 14.1 12.3438 12.7933 12.3438Z" fill="#2A2A2A"/>
<path d="M14.6667 6.34374H12.6667C10.8933 6.34374 10.1667 5.61708 10.1667 3.84374V1.84374C10.1667 1.64374 10.2867 1.45708 10.4733 1.38374C10.66 1.30374 10.8733 1.35041 11.02 1.49041L15.02 5.49041C15.16 5.63041 15.2067 5.85041 15.1267 6.03708C15.0533 6.22374 14.8667 6.34374 14.6667 6.34374ZM11.1667 3.05041V3.84374C11.1667 5.06374 11.4467 5.34374 12.6667 5.34374H13.46L11.1667 3.05041Z" fill="#2A2A2A"/>
</svg>
