<svg width="16" height="17" viewBox="0 0 16 17" fill="none" xmlns="http://www.w3.org/2000/svg">
<path d="M10 15.6771H6.00001C2.38001 15.6771 0.833344 14.1304 0.833344 10.5104V6.51042C0.833344 2.89042 2.38001 1.34375 6.00001 1.34375H7.33334C7.60668 1.34375 7.83334 1.57042 7.83334 1.84375C7.83334 2.11708 7.60668 2.34375 7.33334 2.34375H6.00001C2.92668 2.34375 1.83334 3.43708 1.83334 6.51042V10.5104C1.83334 13.5837 2.92668 14.6771 6.00001 14.6771H10C13.0733 14.6771 14.1667 13.5837 14.1667 10.5104V9.17708C14.1667 8.90375 14.3933 8.67708 14.6667 8.67708C14.94 8.67708 15.1667 8.90375 15.1667 9.17708V10.5104C15.1667 14.1304 13.62 15.6771 10 15.6771Z" fill="#2A2A2A"/>
<path d="M5.66667 12.3036C5.26 12.3036 4.88667 12.157 4.61334 11.8903C4.28667 11.5636 4.14667 11.0903 4.22 10.5903L4.50667 8.58363C4.56 8.19696 4.81334 7.69696 5.08667 7.42363L10.34 2.17029C11.6667 0.843626 13.0133 0.843626 14.34 2.17029C15.0667 2.89696 15.3933 3.63696 15.3267 4.37696C15.2667 4.97696 14.9467 5.56363 14.34 6.16363L9.08667 11.417C8.81334 11.6903 8.31334 11.9436 7.92667 11.997L5.92 12.2836C5.83334 12.3036 5.74667 12.3036 5.66667 12.3036ZM11.0467 2.87696L5.79334 8.13029C5.66667 8.25696 5.52 8.55029 5.49334 8.72363L5.20667 10.7303C5.18 10.9236 5.22 11.0836 5.32 11.1836C5.42 11.2836 5.58 11.3236 5.77334 11.297L7.78 11.0103C7.95334 10.9836 8.25334 10.837 8.37334 10.7103L13.6267 5.45696C14.06 5.02363 14.2867 4.63696 14.32 4.27696C14.36 3.84363 14.1333 3.38363 13.6267 2.87029C12.56 1.80363 11.8267 2.10363 11.0467 2.87696Z" fill="#2A2A2A"/>
<path d="M13.2333 7.06344C13.1867 7.06344 13.14 7.05678 13.1 7.04344C11.3467 6.55011 9.95332 5.15678 9.45999 3.40344C9.38665 3.13678 9.53999 2.86344 9.80665 2.78344C10.0733 2.71011 10.3467 2.86344 10.42 3.13011C10.82 4.55011 11.9467 5.67678 13.3667 6.07678C13.6333 6.15011 13.7867 6.43011 13.7133 6.69678C13.6533 6.92344 13.4533 7.06344 13.2333 7.06344Z" fill="#2A2A2A"/>
</svg>
