<svg width="16" height="16" viewBox="0 0 16 16" fill="none" xmlns="http://www.w3.org/2000/svg">
<path d="M2.08645 12.2334C2.08645 12.6437 2.17689 12.7885 2.2427 12.8493C2.31836 12.9191 2.49177 13.0003 2.91978 13.0003H3.58645C4.01479 13.0003 4.18855 12.9191 4.26418 12.8493C4.32999 12.7885 4.41978 12.6437 4.41978 12.2334V5.7002C4.41978 5.29 4.32999 5.14509 4.26418 5.08431C4.18855 5.01449 4.01479 4.93327 3.58645 4.93327H2.91978C2.49165 4.9333 2.31833 5.01451 2.2427 5.08431C2.17689 5.14506 2.08645 5.28987 2.08645 5.7002V12.2334ZM10.8534 13.7334C11.1335 13.7334 11.4489 13.6259 11.7167 13.43C11.984 13.2344 12.1687 12.9766 12.2349 12.7119L12.2394 12.6943L12.2453 12.6774L13.8449 7.81087L13.8469 7.80436L13.8495 7.7985C13.9667 7.47009 13.9079 7.21422 13.7844 7.04655C13.6584 6.87566 13.418 6.7334 13.0532 6.7334H10.3866C9.69115 6.73333 9.11437 6.13923 9.22512 5.36296L9.22577 5.35645L9.5591 3.22298L9.56171 3.20736L9.56496 3.19173C9.63416 2.88035 9.43145 2.48522 9.09687 2.33431L9.02851 2.30762L9.02004 2.30501L9.01093 2.30176C8.87566 2.25107 8.69812 2.25225 8.51614 2.31478C8.33077 2.3785 8.19656 2.48629 8.13593 2.57715L8.13528 2.5791L5.41978 6.61881V11.9365L7.35923 13.4378L7.38463 13.4574L7.40676 13.4801C7.45124 13.5246 7.57141 13.5948 7.77395 13.6527C7.96441 13.7071 8.16846 13.7334 8.32017 13.7334H10.8534ZM1.08645 5.7002C1.08645 5.17719 1.19679 4.68854 1.56431 4.34928C1.92194 4.01921 2.41491 3.9333 2.91978 3.93327H3.58645C4.09144 3.93327 4.58487 4.0191 4.94257 4.34928C5.13014 4.52243 5.24975 4.73475 5.32278 4.97038L7.30455 2.02311C7.51059 1.71405 7.84279 1.48841 8.19062 1.36881C8.53684 1.2498 8.95192 1.21767 9.34491 1.3597C9.34641 1.3602 9.34797 1.3605 9.34947 1.361C9.35368 1.36254 9.35828 1.36333 9.36249 1.36491V1.36621C10.1682 1.64502 10.7189 2.52519 10.5474 3.37728L10.2147 5.50749C10.2024 5.59937 10.2292 5.65019 10.2531 5.67741C10.281 5.70899 10.3267 5.73336 10.3866 5.7334H13.0532C13.6885 5.7334 14.2483 5.99107 14.5891 6.45345C14.9322 6.91909 15.0069 7.53025 14.7909 8.13509L13.1952 12.9893C13.0552 13.5088 12.714 13.9389 12.3072 14.2367C11.8915 14.5408 11.3732 14.7334 10.8534 14.7334H8.32017C8.07188 14.7334 7.77542 14.6932 7.49921 14.6143C7.24975 14.543 6.9572 14.4222 6.73814 14.2217L5.27785 13.0915C5.20348 13.276 5.09545 13.4432 4.94257 13.5843C4.58488 13.9144 4.09141 14.0003 3.58645 14.0003H2.91978C2.41494 14.0003 1.92194 13.9143 1.56431 13.5843C1.19679 13.2451 1.08645 12.7564 1.08645 12.2334V5.7002Z" fill="#292D32"/>
</svg>
