<svg width="28" height="28" viewBox="0 0 28 28" fill="none" xmlns="http://www.w3.org/2000/svg">
<path d="M25.0833 12.7168V4.7835C25.0833 3.0335 24.3367 2.3335 22.4817 2.3335H17.7683C15.9133 2.3335 15.1667 3.0335 15.1667 4.7835V12.7168C15.1667 14.4668 15.9133 15.1668 17.7683 15.1668H22.4817C24.3367 15.1668 25.0833 14.4668 25.0833 12.7168Z" fill="#5996DF"/>
<path d="M12.8333 15.2835V23.2168C12.8333 24.9668 12.0867 25.6668 10.2317 25.6668H5.51833C3.66333 25.6668 2.91666 24.9668 2.91666 23.2168V15.2835C2.91666 13.5335 3.66333 12.8335 5.51833 12.8335H10.2317C12.0867 12.8335 12.8333 13.5335 12.8333 15.2835Z" fill="#5996DF"/>
<path opacity="0.4" d="M25.0833 23.2167V19.95C25.0833 18.2 24.3367 17.5 22.4817 17.5H17.7683C15.9133 17.5 15.1667 18.2 15.1667 19.95V23.2167C15.1667 24.9667 15.9133 25.6667 17.7683 25.6667H22.4817C24.3367 25.6667 25.0833 24.9667 25.0833 23.2167Z" fill="#80B7F9"/>
<path opacity="0.4" d="M12.8333 8.05016V4.7835C12.8333 3.0335 12.0867 2.3335 10.2317 2.3335H5.51833C3.66333 2.3335 2.91666 3.0335 2.91666 4.7835V8.05016C2.91666 9.80016 3.66333 10.5002 5.51833 10.5002H10.2317C12.0867 10.5002 12.8333 9.80016 12.8333 8.05016Z" fill="#80B7F9"/>
</svg>
