<svg width="28" height="28" viewBox="0 0 28 28" fill="none" xmlns="http://www.w3.org/2000/svg">
<path opacity="0.4" d="M18.8883 2.3335H9.11168C4.86501 2.3335 2.33334 4.86516 2.33334 9.11183V18.8768C2.33334 23.1352 4.86501 25.6668 9.11168 25.6668H18.8767C23.1233 25.6668 25.655 23.1352 25.655 18.8885V9.11183C25.6667 4.86516 23.135 2.3335 18.8883 2.3335Z" fill="#80B7F9"/>
<path d="M21 13.125H14.875V7C14.875 6.52167 14.4783 6.125 14 6.125C13.5217 6.125 13.125 6.52167 13.125 7V13.125H7C6.52167 13.125 6.125 13.5217 6.125 14C6.125 14.4783 6.52167 14.875 7 14.875H13.125V21C13.125 21.4783 13.5217 21.875 14 21.875C14.4783 21.875 14.875 21.4783 14.875 21V14.875H21C21.4783 14.875 21.875 14.4783 21.875 14C21.875 13.5217 21.4783 13.125 21 13.125Z" fill="#5996DF"/>
</svg>
