<svg width="16" height="17" viewBox="0 0 16 17" fill="none" xmlns="http://www.w3.org/2000/svg">
<path d="M1.57355 14.804V11.4707C1.57355 11.1946 1.7974 10.9707 2.07355 10.9707H5.08657C5.36271 10.9707 5.58657 11.1946 5.58657 11.4707C5.58641 11.7467 5.36262 11.9707 5.08657 11.9707H3.05922C3.29967 12.263 3.61284 12.6085 3.99282 12.9531C4.96724 13.8369 6.33362 14.6771 7.99998 14.6771C11.4038 14.6771 14.1666 11.9143 14.1666 8.51042C14.1666 8.23427 14.3905 8.01042 14.6666 8.01042C14.9428 8.01042 15.1666 8.23427 15.1666 8.51042C15.1666 12.4666 11.9561 15.6771 7.99998 15.6771C5.98638 15.6771 4.38985 14.6635 3.32094 13.694C3.03698 13.4365 2.78763 13.1786 2.57355 12.9395V14.804C2.57339 15.08 2.34949 15.3039 2.07355 15.304C1.7975 15.304 1.5737 15.08 1.57355 14.804ZM0.833313 8.51042C0.833313 4.55558 4.01587 1.34375 7.99998 1.34375C10.3717 1.34375 12.1477 2.33446 13.3209 3.31315C13.6487 3.58661 13.9304 3.86039 14.1666 4.11263V2.2168C14.1668 1.94079 14.3906 1.7168 14.6666 1.7168C14.9427 1.7168 15.1665 1.94079 15.1666 2.2168V5.55013C15.1666 5.82627 14.9428 6.05013 14.6666 6.05013H11.7064C11.4303 6.04998 11.2064 5.82618 11.2064 5.55013C11.2065 5.27421 11.4304 5.05028 11.7064 5.05013H13.6647C13.4159 4.76191 13.088 4.42081 12.6803 4.08073C11.6319 3.20619 10.0747 2.34375 7.99998 2.34375C4.57076 2.34375 1.83331 5.10525 1.83331 8.51042C1.83331 8.78656 1.60946 9.01042 1.33331 9.01042C1.05717 9.01042 0.833313 8.78656 0.833313 8.51042Z" fill="#292D32"/>
</svg>
